<svg width="216" height="48" viewBox="0 0 216 48" fill="none" xmlns="http://www.w3.org/2000/svg">
<g clip-path="url(#clip0_3_157)">
<path d="M82.2407 6.86951C89.2771 6.86951 93.1304 10.0527 93.1304 15.8605C93.1304 20.3838 90.8966 23.1203 86.5407 24.0138C91.5668 25.3541 93.7447 28.1463 93.7447 33.284C93.7447 40.3204 89.3329 44.1178 81.1238 44.1178H72.3562V6.86951H82.2407ZM81.1238 21.7799C83.9161 21.7799 85.8705 19.8813 85.8705 17.089C85.8705 14.3526 83.916 12.4539 81.1238 12.4539H79.616V21.7799H81.1238ZM81.1238 38.3657C84.3628 38.3657 86.3173 36.2995 86.3173 32.8371C86.3173 29.3747 84.3628 27.3644 81.1238 27.3644H79.616V38.3657H81.1238Z" fill="black"/>
<path d="M115.02 44.1177H108.431V39.0917C107.091 43.1683 105.415 44.8436 102.735 44.8436C98.2671 44.8436 95.6982 39.5943 95.6982 30.3799C95.6982 25.6889 96.48 21.3331 97.7086 19.211C98.9372 17.033 100.612 15.8604 102.511 15.8604C105.024 15.8604 106.923 17.7032 108.431 21.6123V16.5862H115.02V44.1177ZM102.79 30.4359C102.79 35.9645 103.684 38.5333 105.527 38.5333C107.481 38.5333 108.431 35.9086 108.431 30.4917C108.431 24.963 107.481 22.3384 105.527 22.3384C103.684 22.3384 102.79 24.9073 102.79 30.4358V30.4359Z" fill="black"/>
<path d="M125.072 16.5865V20.5514C126.412 17.2566 128.311 15.8605 131.438 15.8605C134.342 15.8605 135.794 17.2008 136.632 20.5514C138.251 17.145 140.038 15.8605 142.998 15.8605C145.176 15.8605 146.963 16.9774 147.633 18.7085C148.08 19.8254 148.136 20.4397 148.136 23.1203V44.1177H141.267V25.6891C141.267 23.0644 140.597 22.0033 139.089 22.0033C137.469 22.0033 136.688 23.176 136.688 25.6891V44.1177H129.819V25.1865C129.819 23.0085 129.093 21.9475 127.697 21.9475C126.915 21.9475 126.133 22.3384 125.742 22.9527C125.407 23.5112 125.295 24.1813 125.295 25.6891V44.1177H118.427V16.5865H125.072Z" fill="black"/>
<path d="M158.801 6.86951V21.2215C160.476 17.3683 162.04 15.8605 164.385 15.8605C166.563 15.8605 168.517 17.3683 169.69 20.0489C170.584 22.0592 171.254 26.3593 171.254 30.38C171.254 39.5385 168.685 44.8438 164.273 44.8438C161.537 44.8438 160.085 43.336 158.522 39.0918V44.1179H151.932V6.86951H158.801H158.801ZM158.521 30.38C158.521 35.9087 159.471 38.5333 161.425 38.5333C163.268 38.5333 164.162 35.9645 164.162 30.4359C164.162 24.9074 163.268 22.3385 161.425 22.3385C159.471 22.3385 158.521 24.9632 158.521 30.3801V30.38Z" fill="black"/>
<path d="M193.312 30.5475C193.312 39.5943 189.626 44.8436 183.26 44.8436C176.838 44.8436 173.208 39.5943 173.208 30.3241C173.208 21.1098 176.838 15.8604 183.26 15.8604C189.738 15.8604 193.312 21.0539 193.312 30.5474V30.5475ZM180.3 30.4358C180.3 36.7462 181.138 39.2592 183.316 39.2592C185.326 39.2592 186.22 36.5786 186.22 30.4916C186.22 24.0695 185.382 21.5565 183.204 21.5565C181.138 21.5565 180.3 24.1812 180.3 30.4358Z" fill="black"/>
<path d="M215.369 30.5475C215.369 39.5943 211.684 44.8436 205.317 44.8436C198.895 44.8436 195.266 39.5943 195.266 30.3241C195.266 21.1098 198.895 15.8604 205.317 15.8604C211.795 15.8604 215.369 21.0539 215.369 30.5474V30.5475ZM202.358 30.4358C202.358 36.7462 203.195 39.2592 205.373 39.2592C207.384 39.2592 208.277 36.5786 208.277 30.4916C208.277 24.0695 207.439 21.5565 205.262 21.5565C203.195 21.5565 202.358 24.1812 202.358 30.4358Z" fill="black"/>
<path d="M16.3903 48C7.59634 48 0.403612 40.8941 0.356416 32.1599L0.356201 32C0.356201 26.471 1.87602 21.1606 4.76892 16.5202C3.63225 14.7974 3.0228 12.7808 3.0228 10.6667C3.0229 4.78501 7.80803 0 13.6895 0C16.8507 0 19.7994 1.39253 21.8025 3.74016C24.3603 3.02696 27.0048 2.66659 29.6905 2.66659C29.8274 2.66659 29.9647 2.66745 30.1022 2.6695C32.6377 2.70454 35.1405 3.06684 37.5689 3.74919C39.5718 1.39587 42.5229 0 45.6896 0C51.5711 0 56.3563 4.78501 56.3563 10.6667C56.3563 12.7907 55.7417 14.8148 54.5957 16.542C57.3579 20.9622 58.8782 25.9984 59.0131 31.2276C59.021 31.5361 59.0241 31.8441 59.0228 32.151C58.978 40.8908 51.7853 48 42.9889 48H16.3903Z" fill="url(#paint0_linear_3_157)"/>
<path d="M56.3472 31.2963C56.2041 25.7449 54.3413 20.6055 51.2776 16.3891C52.765 14.9364 53.6896 12.91 53.6896 10.6666C53.6896 6.24832 50.1078 2.66663 45.6896 2.66663C42.638 2.66663 39.9863 4.37566 38.6372 6.8883C35.9479 5.92268 33.0641 5.37719 30.0656 5.3358C26.7887 5.29065 23.6453 5.83721 20.735 6.87465C19.3837 4.36932 16.7356 2.66663 13.6896 2.66663C9.27133 2.66663 5.68964 6.24832 5.68964 10.6666C5.68964 12.9003 6.60592 14.9193 8.08209 16.3706C4.89989 20.7624 3.02283 26.1618 3.02283 32C3.02283 32.0486 3.02293 32.0971 3.02326 32.1457C3.0625 39.4581 9.07782 45.3334 16.3903 45.3334H42.9891C50.3044 45.3334 56.3187 39.4538 56.356 32.1386C56.3574 31.8589 56.3544 31.5782 56.3473 31.2964L56.3472 31.2963Z" fill="black"/>
<path d="M16.3904 44C9.79014 44 4.39169 38.6789 4.35654 32.1384L4.35632 32C4.35632 18.0311 15.721 6.6665 29.6899 6.6665C29.8079 6.6665 29.9287 6.66726 30.0472 6.66898C36.5886 6.75907 42.7768 9.36245 47.472 13.9995C52.1673 18.637 54.846 24.792 55.0144 31.3306C55.0212 31.5988 55.0241 31.866 55.0228 32.1322C54.9895 38.6759 49.5913 44 42.9892 44H16.3904Z" fill="white"/>
<path d="M44.2365 18.9163C40.9053 15.8857 34.8385 15.8109 33.1199 18.4633C31.4951 20.9709 34.1352 25.3324 36.3245 27.5188C38.6073 29.7986 42.9977 32.3078 45.38 30.7235C48.0476 28.9495 47.8945 22.2443 44.2365 18.9163Z" fill="black"/>
<path d="M15.1351 18.9163C18.4663 15.8857 24.5332 15.8109 26.2518 18.4633C27.8765 20.9709 25.2365 25.3324 23.0471 27.5188C20.7643 29.7986 16.3739 32.3078 13.9916 30.7235C11.324 28.9495 11.4771 22.2443 15.1351 18.9163Z" fill="black"/>
<path d="M36.326 33.0538C36.6214 35.1518 33.1037 37.9064 29.6905 37.9066C26.2768 37.9069 22.7589 35.1519 23.0541 33.0538C23.3364 31.0487 27.0636 29.9122 29.6901 29.9122C32.3166 29.9122 36.0437 31.0486 36.326 33.0538Z" fill="black"/>
</g>
<defs>
<linearGradient id="paint0_linear_3_157" x1="49.9168" y1="-1.6126" x2="0.356207" y2="47.948" gradientUnits="userSpaceOnUse">
<stop stop-color="white"/>
<stop offset="0.180645" stop-color="#BD8EFF"/>
<stop offset="1" stop-color="#4D33FF"/>
</linearGradient>
<clipPath id="clip0_3_157">
<rect width="215.013" height="48" fill="white" transform="translate(0.356201)"/>
</clipPath>
</defs>
</svg>
